# xmcd
#
# Track frame offsets: 
#        150
#        14480
#        32916
#        54425
#        67724
#        81518
#        106103
#        129654
#        145763
#        170054
#        183887
#        196161
#        210165
#        230099
#        246242
#
# Disc length: 3374 seconds
#
# Revision: 1
# Processed by: cddbd v1.5.2PL0 Copyright (c) Steve Scherf et al.
# Submitted via: ExactAudioCopyFreeDBPlugin 1.0
#
DISCID=ca0d2c0f
DTITLE=Various Artist - Texas Harmonica Rumble
DYEAR=2006
DGENRE=Blues
TTITLE0=Orange Jefferson - Hey Warden
TTITLE1=Lazy Lester - That's All Right
TTITLE2=Bobby Rush - Poison Ivy
TTITLE3=Sammy Meyers - Brain Dead
TTITLE4=Mel Davis - I Love My Baby
TTITLE5=Joe Jonas - Blues From Beaumont Texas
TTITLE6=Bobby Rush - High Temper
TTITLE7=Lazy Lester - Honest I Do
TTITLE8=Bobby Rush - Hot Air
TTITLE9=Sammy Meyers - Must Have Been The Devil
TTITLE10=Orange Jefferson - Salslow Blues
TTITLE11=Joe Jonas With Little Joe Washington - Take Off Your Shoes
TTITLE12=Joe Jonas - Clean House
TTITLE13=Mel Davis - You Can Have Your Cake
TTITLE14=Mel Davis - 19 Naugh Naught
EXTD=
EXTT0=
EXTT1=
EXTT2=
EXTT3=
EXTT4=
EXTT5=
EXTT6=
EXTT7=
EXTT8=
EXTT9=
EXTT10=
EXTT11=
EXTT12=
EXTT13=
EXTT14=
PLAYORDER=
